<svg width="172" height="51" viewBox="0 0 172 51" fill="none" xmlns="http://www.w3.org/2000/svg">
<g clip-path="url(#clip0_2_2)">
<path fill-rule="evenodd" clip-rule="evenodd" d="M38.624 4.26032C40.5806 5.33342 42.4229 6.69544 44.0823 8.34637C53.6229 17.8209 53.6229 33.1791 44.0823 42.6536C37.8331 48.8584 29.0377 51 21.0331 49.0739L41.4309 28.8179C42.9211 27.3367 43.5977 25.5803 43.456 23.5441C43.3143 21.508 42.4869 19.7378 40.9737 18.2336C39.4606 16.7294 37.7143 15.9223 35.7303 15.8031C33.632 15.6655 31.84 16.335 30.3497 17.8163L19.0629 29.0243C18.4823 29.6021 17.7417 29.4462 16.8457 28.5565C15.9497 27.6668 15.7943 26.9285 16.3749 26.3507L38.624 4.26032ZM9.54058 8.34637C15.7897 2.14163 24.5851 1.0959e-06 32.5897 1.92609L12.1874 22.1867C10.6971 23.6679 10.0023 25.4518 10.1531 27.5247C10.2994 29.492 11.1497 31.2209 12.6583 32.7205C14.1669 34.2201 15.9131 35.0502 17.888 35.2061C19.9863 35.3345 21.7783 34.6604 23.2731 33.1745L34.5829 21.9436C35.1634 21.3658 35.8994 21.5171 36.7863 22.393C37.696 23.2965 37.856 24.0348 37.2754 24.6126L14.9989 46.7351C13.0423 45.662 11.2 44.3 9.54058 42.649C3.91036e-06 33.1791 3.91036e-06 17.8209 9.54058 8.34637Z" fill="url(#paint0_linear_2_2)"/>
<mask id="mask0_2_2" style="mask-type:luminance" maskUnits="userSpaceOnUse" x="2" y="1" width="50" height="49">
<path d="M38.624 4.26032C40.5806 5.33342 42.4229 6.69544 44.0823 8.34637C53.6229 17.8209 53.6229 33.1791 44.0823 42.6536C37.8331 48.8584 29.0377 51 21.0331 49.0739L41.4309 28.8179C42.9211 27.3367 43.5977 25.5803 43.456 23.5441C43.3143 21.508 42.4869 19.7378 40.9737 18.2336C39.4606 16.7294 37.7143 15.9223 35.7303 15.8031C33.632 15.6655 31.84 16.335 30.3497 17.8163L19.0629 29.0243C18.4823 29.6021 17.7417 29.4462 16.8457 28.5565C15.9497 27.6668 15.7943 26.9285 16.3749 26.3507L38.624 4.26032ZM9.54058 8.34637C15.7897 2.14163 24.5851 1.0959e-06 32.5897 1.92609L12.1874 22.1867C10.6971 23.6679 10.0023 25.4518 10.1531 27.5247C10.2994 29.492 11.1497 31.2209 12.6583 32.7205C14.1669 34.2201 15.9131 35.0502 17.888 35.2061C19.9863 35.3345 21.7783 34.6604 23.2731 33.1745L34.5829 21.9436C35.1634 21.3658 35.8994 21.5171 36.7863 22.393C37.696 23.2965 37.856 24.0348 37.2754 24.6126L14.9989 46.7351C13.0423 45.662 11.2 44.3 9.54058 42.649C3.91036e-06 33.1791 3.91036e-06 17.8209 9.54058 8.34637Z" fill="white"/>
</mask>
<g mask="url(#mask0_2_2)">
<path d="M53.6274 0H0V51H53.6274V0Z" fill="url(#paint1_linear_2_2)"/>
</g>
<path d="M58.4411 15.0647H64.6491C65.3303 15.0647 65.9657 15.1702 66.5554 15.3858C67.1451 15.5967 67.6617 15.8902 68.096 16.2663C68.5303 16.6423 68.8731 17.078 69.1246 17.5778C69.376 18.0777 69.4994 18.6142 69.4994 19.1829C69.4994 20.0175 69.2983 20.7192 68.8914 21.2832C68.4846 21.8473 67.9771 22.2784 67.3737 22.5719V22.7462C68.1874 23.0397 68.8411 23.4982 69.3349 24.1219C69.8286 24.7456 70.0754 25.5206 70.0754 26.4424C70.0754 27.1165 69.9383 27.7219 69.664 28.2584C69.3897 28.795 69.0194 29.2536 68.544 29.6342C68.0686 30.0148 67.52 30.3083 66.8937 30.5147C66.2674 30.7211 65.5909 30.822 64.864 30.822H58.4366V15.0647H58.4411ZM64.4251 21.4942C65.12 21.4942 65.6549 21.3062 66.0343 20.9347C66.4091 20.5587 66.6011 20.1184 66.6011 19.6048C66.6011 19.0912 66.4183 18.6509 66.048 18.2841C65.6777 17.9172 65.1703 17.7337 64.5166 17.7337H61.4354V21.4988H64.4297L64.4251 21.4942ZM64.7589 28.0979C65.5131 28.0979 66.0891 27.9099 66.4869 27.5384C66.8846 27.1624 67.0857 26.6855 67.0857 26.0985C67.0857 25.5115 66.8846 25.0254 66.4777 24.6356C66.0709 24.2458 65.4674 24.0531 64.672 24.0531H61.4354V28.1025H64.7589V28.0979Z" fill="#D2FFFF"/>
<path d="M72.032 20.0405H74.7566V21.5355H74.9348C75.0674 21.2695 75.2457 21.031 75.4651 20.8109C75.6846 20.5908 75.936 20.3982 76.2057 20.2377C76.48 20.0726 76.7726 19.9442 77.0926 19.8433C77.408 19.7424 77.7234 19.6919 78.0343 19.6919C78.4183 19.6919 78.7474 19.7332 79.0217 19.8158C79.296 19.8983 79.5291 20.0038 79.7211 20.1322L78.944 22.7095C78.7657 22.6223 78.5691 22.5535 78.3543 22.4985C78.1394 22.4481 77.8788 22.4206 77.568 22.4206C77.1703 22.4206 76.8046 22.4985 76.48 22.6544C76.1554 22.8104 75.8766 23.0259 75.648 23.3056C75.4194 23.5854 75.2411 23.9156 75.1177 24.2916C74.9943 24.6677 74.9303 25.0758 74.9303 25.5206V30.8311H72.0274V20.045L72.032 20.0405Z" fill="#D2FFFF"/>
<path d="M87.3051 29.6801H87.1269C86.7886 30.0928 86.3771 30.4413 85.8971 30.7348C85.4171 31.0283 84.8 31.1751 84.0457 31.1751C83.4834 31.1751 82.9577 31.0834 82.4594 30.8999C81.9657 30.7165 81.5314 30.4643 81.1611 30.1387C80.7909 29.8176 80.5029 29.4278 80.2971 28.9738C80.0914 28.5198 79.9863 28.02 79.9863 27.4788C79.9863 26.9377 80.096 26.4195 80.32 25.9701C80.5394 25.5206 80.8503 25.1354 81.2526 24.8144C81.6503 24.4934 82.1211 24.2458 82.6606 24.0761C83.2 23.9064 83.7851 23.8238 84.4206 23.8238C85.1291 23.8238 85.7143 23.8789 86.1714 23.9889C86.6286 24.099 87.008 24.2136 87.3006 24.3283V23.9981C87.3006 23.4249 87.072 22.9525 86.6149 22.5765C86.1577 22.2004 85.5863 22.017 84.9097 22.017C83.904 22.017 83.0537 22.4343 82.3589 23.2735L80.2514 21.8427C81.4034 20.4028 82.976 19.6873 84.9737 19.6873C86.6606 19.6873 87.9451 20.0817 88.832 20.8659C89.7189 21.6501 90.1623 22.8149 90.1623 24.3558V30.8265H87.3051V29.6801ZM87.3051 26.4424C86.9669 26.2819 86.6148 26.1535 86.2537 26.0572C85.8926 25.9609 85.4949 25.915 85.0697 25.915C84.3749 25.915 83.84 26.0664 83.4606 26.3644C83.0811 26.6625 82.8937 27.034 82.8937 27.4742C82.8937 27.9145 83.0766 28.2676 83.4377 28.529C83.7989 28.795 84.2149 28.9234 84.6903 28.9234C85.0743 28.9234 85.4309 28.8546 85.7554 28.7124C86.08 28.5749 86.3589 28.3914 86.5874 28.1621C86.816 27.9328 86.9943 27.6714 87.1177 27.3688C87.2411 27.0661 87.3051 26.7542 87.3051 26.4332V26.4424Z" fill="#D2FFFF"/>
<path d="M95.1954 21.4483H95.3737C95.712 20.9072 96.1737 20.4761 96.7497 20.1597C97.3257 19.8433 97.984 19.6873 98.7246 19.6873C99.4057 19.6873 100.005 19.7974 100.521 20.0175C101.038 20.2377 101.463 20.5495 101.797 20.9531C102.13 21.3566 102.382 21.8427 102.551 22.4068C102.72 22.9709 102.807 23.5991 102.807 24.287V30.8265H99.904V24.6401C99.904 23.8605 99.7303 23.2873 99.3828 22.9112C99.0354 22.5352 98.528 22.3518 97.8651 22.3518C97.4674 22.3518 97.1154 22.4343 96.8137 22.604C96.512 22.7737 96.2514 22.9984 96.0366 23.2873C95.8217 23.5716 95.6617 23.911 95.5474 24.3008C95.4377 24.6906 95.3828 25.1033 95.3828 25.5436V30.8265H92.48V20.0405H95.2046V21.4483H95.1954Z" fill="#D2FFFF"/>
<path d="M113.285 29.5287H113.106C112.841 29.9827 112.425 30.3725 111.863 30.6936C111.301 31.0146 110.606 31.1797 109.778 31.1797C109.083 31.1797 108.421 31.0375 107.794 30.7486C107.168 30.4643 106.61 30.0653 106.13 29.5608C105.65 29.0564 105.271 28.451 104.987 27.7448C104.709 27.0386 104.567 26.2681 104.567 25.4335C104.567 24.5989 104.709 23.8284 104.987 23.1222C105.266 22.416 105.65 21.8106 106.13 21.3062C106.61 20.8017 107.163 20.4028 107.794 20.1184C108.421 19.8341 109.083 19.6873 109.778 19.6873C110.606 19.6873 111.301 19.8479 111.863 20.1735C112.425 20.4991 112.837 20.8843 113.106 21.3383H113.285L113.106 19.7974V15.0647H116.009V30.8265H113.285V29.5287ZM110.382 28.5152C110.766 28.5152 111.131 28.4465 111.479 28.3043C111.826 28.1667 112.133 27.9649 112.398 27.6989C112.663 27.433 112.878 27.112 113.042 26.7313C113.207 26.3507 113.285 25.915 113.285 25.4335C113.285 24.952 113.202 24.5163 113.042 24.1357C112.878 23.7551 112.667 23.4295 112.398 23.1681C112.128 22.9067 111.826 22.7003 111.479 22.5627C111.131 22.4251 110.766 22.3518 110.382 22.3518C109.998 22.3518 109.632 22.4251 109.285 22.5719C108.937 22.7186 108.631 22.925 108.366 23.1864C108.101 23.4478 107.886 23.7734 107.721 24.154C107.557 24.5347 107.479 24.9612 107.479 25.4289C107.479 25.8967 107.561 26.3232 107.721 26.7038C107.886 27.0844 108.096 27.41 108.366 27.6714C108.635 27.9328 108.937 28.1392 109.285 28.2859C109.632 28.4327 109.998 28.5061 110.382 28.5061V28.5152Z" fill="#D2FFFF"/>
<path d="M123.721 15.0647H126.715V28.0062H133.431V30.822H123.721V15.0647Z" fill="#D2FFFF"/>
<path d="M140.347 19.6873C141.189 19.6873 141.961 19.8295 142.665 20.1184C143.369 20.4028 143.973 20.8017 144.485 21.3062C144.997 21.8106 145.394 22.416 145.682 23.1222C145.97 23.8284 146.117 24.5989 146.117 25.4335C146.117 26.2681 145.975 27.0386 145.682 27.7448C145.39 28.451 144.997 29.0564 144.485 29.5608C143.973 30.0653 143.369 30.4643 142.665 30.7486C141.961 31.0329 141.193 31.1797 140.347 31.1797C139.502 31.1797 138.734 31.0375 138.03 30.7486C137.326 30.4643 136.722 30.0653 136.21 29.5608C135.698 29.0564 135.301 28.451 135.013 27.7448C134.725 27.0386 134.578 26.2681 134.578 25.4335C134.578 24.5989 134.72 23.8284 135.013 23.1222C135.305 22.416 135.698 21.8106 136.21 21.3062C136.722 20.8017 137.326 20.4028 138.03 20.1184C138.729 19.8341 139.502 19.6873 140.347 19.6873ZM140.347 28.5152C140.718 28.5152 141.074 28.4465 141.422 28.3043C141.769 28.1667 142.075 27.9649 142.341 27.6989C142.606 27.433 142.816 27.1119 142.971 26.7313C143.127 26.3507 143.205 25.915 143.205 25.4335C143.205 24.952 143.127 24.5163 142.971 24.1357C142.816 23.7551 142.606 23.4295 142.341 23.1681C142.075 22.9067 141.769 22.7003 141.422 22.5627C141.074 22.4251 140.718 22.3518 140.347 22.3518C139.977 22.3518 139.602 22.4206 139.259 22.5627C138.921 22.7003 138.615 22.9021 138.35 23.1681C138.085 23.434 137.874 23.7551 137.719 24.1357C137.563 24.5163 137.486 24.952 137.486 25.4335C137.486 25.915 137.563 26.3507 137.719 26.7313C137.874 27.1119 138.085 27.4376 138.35 27.6989C138.615 27.9649 138.917 28.1667 139.259 28.3043C139.598 28.4419 139.963 28.5152 140.347 28.5152Z" fill="#D2FFFF"/>
<path d="M152.983 35.9353C152.215 35.9353 151.529 35.8344 150.93 35.6372C150.331 35.44 149.81 35.1832 149.367 34.8667C148.923 34.5503 148.553 34.2018 148.261 33.8212C147.963 33.4405 147.749 33.0553 147.616 32.6747L150.386 31.574C150.592 32.1473 150.935 32.5921 151.406 32.904C151.877 33.2204 152.402 33.3763 152.978 33.3763C153.893 33.3763 154.619 33.0828 155.15 32.4912C155.68 31.8996 155.95 31.0879 155.95 30.0515V29.304H155.771C155.433 29.7718 154.985 30.1432 154.432 30.4138C153.879 30.6844 153.225 30.822 152.471 30.822C151.822 30.822 151.191 30.689 150.574 30.4276C149.961 30.1662 149.417 29.7901 148.946 29.304C148.471 28.8179 148.087 28.2309 147.794 27.5476C147.497 26.8643 147.351 26.1031 147.351 25.2592C147.351 24.4154 147.497 23.6496 147.794 22.9617C148.091 22.2738 148.475 21.6822 148.946 21.1961C149.417 20.71 149.961 20.334 150.574 20.0726C151.186 19.8112 151.817 19.6782 152.471 19.6782C153.225 19.6782 153.879 19.8158 154.432 20.0863C154.985 20.3569 155.433 20.7284 155.771 21.1961H155.95V20.0313H158.72V30.0469C158.72 30.9549 158.578 31.7758 158.299 32.5004C158.021 33.225 157.627 33.8441 157.125 34.3485C156.622 34.853 156.018 35.2428 155.319 35.5134C154.615 35.7839 153.838 35.9215 152.978 35.9215L152.983 35.9353ZM153.093 28.2309C153.449 28.2309 153.797 28.1667 154.144 28.0383C154.491 27.9099 154.798 27.7173 155.063 27.4651C155.328 27.2128 155.543 26.9056 155.707 26.5341C155.872 26.1673 155.95 25.7453 155.95 25.2684C155.95 24.7915 155.867 24.3696 155.707 23.9935C155.543 23.6175 155.333 23.3056 155.063 23.0534C154.798 22.8012 154.491 22.6086 154.144 22.4802C153.797 22.3518 153.445 22.2876 153.093 22.2876C152.741 22.2876 152.389 22.3518 152.05 22.4802C151.712 22.6086 151.406 22.8058 151.141 23.0626C150.875 23.3194 150.661 23.6358 150.496 24.0027C150.331 24.3696 150.254 24.7915 150.254 25.2684C150.254 25.7453 150.336 26.1673 150.496 26.5341C150.661 26.901 150.871 27.2128 151.141 27.4651C151.41 27.7173 151.707 27.9099 152.05 28.0383C152.389 28.1667 152.736 28.2309 153.093 28.2309Z" fill="#D2FFFF"/>
<path d="M166.235 19.6873C167.077 19.6873 167.849 19.8295 168.553 20.1184C169.257 20.4028 169.861 20.8017 170.373 21.3062C170.885 21.8106 171.282 22.416 171.57 23.1222C171.858 23.8284 172.005 24.5989 172.005 25.4335C172.005 26.2681 171.863 27.0386 171.57 27.7448C171.278 28.451 170.885 29.0564 170.373 29.5608C169.861 30.0653 169.257 30.4643 168.553 30.7486C167.849 31.0329 167.081 31.1797 166.235 31.1797C165.39 31.1797 164.622 31.0375 163.918 30.7486C163.214 30.4643 162.61 30.0653 162.098 29.5608C161.586 29.0564 161.189 28.451 160.901 27.7448C160.613 27.0386 160.466 26.2681 160.466 25.4335C160.466 24.5989 160.608 23.8284 160.901 23.1222C161.193 22.416 161.586 21.8106 162.098 21.3062C162.61 20.8017 163.214 20.4028 163.918 20.1184C164.617 19.8341 165.39 19.6873 166.235 19.6873ZM166.235 28.5152C166.606 28.5152 166.962 28.4465 167.31 28.3043C167.657 28.1667 167.963 27.9649 168.229 27.6989C168.494 27.433 168.704 27.1119 168.859 26.7313C169.015 26.3507 169.093 25.915 169.093 25.4335C169.093 24.952 169.015 24.5163 168.859 24.1357C168.704 23.7551 168.494 23.4295 168.229 23.1681C167.963 22.9067 167.657 22.7003 167.31 22.5627C166.962 22.4251 166.606 22.3518 166.235 22.3518C165.865 22.3518 165.49 22.4206 165.147 22.5627C164.809 22.7003 164.503 22.9021 164.238 23.1681C163.973 23.434 163.762 23.7551 163.607 24.1357C163.451 24.5163 163.374 24.952 163.374 25.4335C163.374 25.915 163.451 26.3507 163.607 26.7313C163.762 27.1119 163.973 27.4376 164.238 27.6989C164.503 27.9649 164.805 28.1667 165.147 28.3043C165.486 28.4419 165.851 28.5152 166.235 28.5152Z" fill="#D2FFFF"/>
</g>
<defs>
<linearGradient id="paint0_linear_2_2" x1="-4.64457" y1="57.058" x2="34.8721" y2="17.6616" gradientUnits="userSpaceOnUse">
<stop stop-color="#4FE0B5"/>
<stop offset="1" stop-color="#15CDCB"/>
</linearGradient>
<linearGradient id="paint1_linear_2_2" x1="-4.64457" y1="57.058" x2="34.8721" y2="17.6616" gradientUnits="userSpaceOnUse">
<stop stop-color="#0BD297"/>
<stop offset="1" stop-color="#F3FFFF"/>
</linearGradient>
<clipPath id="clip0_2_2">
<rect width="172" height="51" fill="white"/>
</clipPath>
</defs>
</svg>
